<svg xmlns="http://www.w3.org/2000/svg" id="图层_1" data-name="图层 1" viewBox="0 0 253 142.52"><defs><style>.cls-1{fill:#fff;}.cls-2{fill:none;isolation:isolate;}</style></defs><title/><path class="cls-1" d="M0,102V74c2.71-2.23,5.08-5.35,8.18-6.54C24,61.44,40,55.86,55.94,50.12c10.63-3.82,21.24-7.69,31.92-11.37,1.75-.6,3.79-.34,5.7-.47,0,1.42.5,3,0,4.24-3,7.74-6,15.5-9.46,23A9.47,9.47,0,0,1,78.75,70C65.22,74,51.58,77.72,38,81.5c-3.24.9-6,2.25-6.14,6.15s2.41,5.48,5.73,6.46c17.22,5.06,34.4,10.24,51.63,15.22,5.38,1.55,8,.07,10.16-5.19Q118.81,56.38,138.21,8.6c3-7.45,6.86-9.35,14.49-6.77,3.77,1.27,7.46,2.82,11.2,4.18,27.18,9.81,54.41,19.5,81.51,29.56,2.93,1.09,5.08,4.27,7.59,6.48V69c-1.25,4.24-4.45,6.24-8.39,7.63-26.78,9.47-53.52,19-80.31,28.48-1.55.55-3.36.37-5,.53.16-1.76-.07-3.67.54-5.25C162.42,93.61,165.54,87,168,80.1c1.54-4.32,4.29-6.17,8.56-7.27,13-3.37,26-7.11,38.92-10.76,3.25-.91,5.89-2.53,5.71-6.5s-3-5.3-6.17-6.22c-16.91-4.92-33.85-9.76-50.76-14.68-5.59-1.62-8.36-.49-10.57,4.94-8.37,20.61-16.63,41.27-25,61.89q-7.11,17.54-14.41,35c-2.4,5.72-6.71,7.91-11.89,6.12-6.59-2.28-13.12-4.73-19.68-7.11-24.2-8.76-48.37-17.62-72.64-26.19C5.83,107.85,2.09,106.25,0,102Z" transform="translate(0 -0.74)"/><path class="cls-2" transform="translate(0 -0.74)"/></svg>